<?xml version="1.0" encoding="UTF-8"?>
<svg width="115px" height="143px" viewBox="0 0 115 143" version="1.1" xmlns="http://www.w3.org/2000/svg" xmlns:xlink="http://www.w3.org/1999/xlink">
    <!-- Generator: Sketch 45.2 (43514) - http://www.bohemiancoding.com/sketch -->
    <title>link</title>
    <desc>Created with Sketch.</desc>
    <defs></defs>
    <g id="Page-1" stroke="none" stroke-width="1" fill="none" fill-rule="evenodd">
        <g id="link" fill-rule="nonzero" fill="#FEFEFE">
            <path d="M44.217,64.271 L7.853,100.637 C3.241,105.245 0.703,111.375 0.703,117.896 C0.703,124.42 3.244,130.549 7.854,135.157 C12.463,139.765 18.594,142.305 25.113,142.307 L25.115,142.307 C31.635,142.307 37.763,139.767 42.372,135.157 L78.738,98.79 C86.222,91.306 87.999,79.936 83.311,70.602 L75.327,78.587 C76.319,83.254 74.884,88.155 71.496,91.544 L34.216,128.821 L34.19,128.798 C31.538,131.114 28.189,132.377 24.663,132.377 C20.895,132.377 17.368,130.924 14.726,128.285 C12.045,125.605 10.596,122.026 10.633,118.207 C10.669,114.731 11.934,111.434 14.217,108.817 L14.196,108.797 L14.707,108.282 C14.774,108.211 14.844,108.138 14.913,108.071 C14.934,108.05 14.956,108.027 14.977,108.009 L15.1,107.884 L51.464,71.518 C54.14,68.845 57.694,67.374 61.472,67.374 C62.449,67.374 63.419,67.475 64.371,67.672 L72.364,59.677 C69.004,58.001 65.267,57.123 61.475,57.123 C54.957,57.124 48.827,59.663 44.217,64.271 M114.809,25.337 C114.809,18.817 112.268,12.687 107.659,8.079 C103.049,3.466 96.919,0.928 90.398,0.928 C83.879,0.928 77.75,3.467 73.141,8.079 L36.774,44.442 C29.295,51.92 27.514,63.282 32.189,72.612 L39.835,64.966 C38.958,60.598 40.193,56.002 43.15,52.61 L43.129,52.588 L43.631,52.081 C43.695,52.014 43.765,51.943 43.832,51.875 C43.853,51.855 43.872,51.835 43.894,51.815 L44.02,51.688 L80.383,15.324 C83.058,12.649 86.614,11.177 90.397,11.177 C94.181,11.177 97.736,12.649 100.411,15.324 C105.933,20.845 105.933,29.834 100.411,35.351 L63.138,72.629 L63.112,72.603 C60.456,74.92 57.113,76.184 53.586,76.184 C52.635,76.184 51.695,76.09 50.772,75.906 L43.127,83.551 C46.496,85.232 50.234,86.114 54.034,86.114 C60.557,86.114 66.686,83.575 71.295,78.966 L107.66,42.601 C112.27,37.988 114.809,31.859 114.809,25.337" id="Shape"></path>
        </g>
    </g>
</svg>